<svg width="55" height="19" viewBox="0 0 55 19" fill="none" xmlns="http://www.w3.org/2000/svg">
<path d="M6.05512 15.16C5.31912 15.16 4.69512 15.048 4.18312 14.824C3.68179 14.5893 3.27112 14.2693 2.95112 13.864C2.63112 13.4587 2.39646 12.9947 2.24712 12.472C2.10846 11.9493 2.02846 11.3947 2.00712 10.808C1.99646 10.52 1.98579 10.216 1.97512 9.896C1.97512 9.576 1.97512 9.256 1.97512 8.936C1.98579 8.60533 1.99646 8.29067 2.00712 7.992C2.01779 7.40533 2.09779 6.85067 2.24712 6.328C2.40712 5.79467 2.64179 5.33067 2.95112 4.936C3.27112 4.53067 3.68712 4.216 4.19912 3.992C4.71112 3.75733 5.32979 3.64 6.05512 3.64C6.79112 3.64 7.40979 3.75733 7.91112 3.992C8.42312 4.216 8.83912 4.53067 9.15912 4.936C9.47912 5.33067 9.71379 5.79467 9.86312 6.328C10.0231 6.85067 10.1085 7.40533 10.1191 7.992C10.1298 8.29067 10.1351 8.60533 10.1351 8.936C10.1458 9.256 10.1458 9.576 10.1351 9.896C10.1351 10.216 10.1298 10.52 10.1191 10.808C10.1085 11.3947 10.0231 11.9493 9.86312 12.472C9.71379 12.9947 9.47912 13.4587 9.15912 13.864C8.84979 14.2693 8.43912 14.5893 7.92712 14.824C7.42579 15.048 6.80179 15.16 6.05512 15.16ZM6.05512 13.8C6.88712 13.8 7.50046 13.528 7.89512 12.984C8.30046 12.4293 8.50846 11.6773 8.51912 10.728C8.54046 10.4187 8.55112 10.12 8.55112 9.832C8.55112 9.53333 8.55112 9.24 8.55112 8.952C8.55112 8.65333 8.54046 8.36 8.51912 8.072C8.50846 7.144 8.30046 6.40267 7.89512 5.848C7.50046 5.28267 6.88712 5 6.05512 5C5.23379 5 4.62046 5.28267 4.21512 5.848C3.82046 6.40267 3.61246 7.144 3.59112 8.072C3.59112 8.36 3.58579 8.65333 3.57512 8.952C3.57512 9.24 3.57512 9.53333 3.57512 9.832C3.58579 10.12 3.59112 10.4187 3.59112 10.728C3.61246 11.6773 3.82579 12.4293 4.23112 12.984C4.63646 13.528 5.24446 13.8 6.05512 13.8ZM17.2354 15C17.1287 15 17.038 14.968 16.9634 14.904C16.8994 14.8293 16.8674 14.7387 16.8674 14.632V12.328H11.6834C11.5767 12.328 11.486 12.296 11.4114 12.232C11.3474 12.1573 11.3154 12.0667 11.3154 11.96V11.32C11.3154 11.2773 11.326 11.2133 11.3474 11.128C11.3794 11.032 11.4274 10.936 11.4914 10.84L16.2914 4.072C16.4194 3.89067 16.6167 3.8 16.8834 3.8H18.0354C18.142 3.8 18.2274 3.83733 18.2914 3.912C18.366 3.976 18.4034 4.06133 18.4034 4.168V10.936H19.8434C19.9607 10.936 20.0514 10.9733 20.1154 11.048C20.19 11.112 20.2274 11.1973 20.2274 11.304V11.96C20.2274 12.0667 20.19 12.1573 20.1154 12.232C20.0514 12.296 19.966 12.328 19.8594 12.328H18.4034V14.632C18.4034 14.7387 18.366 14.8293 18.2914 14.904C18.2274 14.968 18.142 15 18.0354 15H17.2354ZM13.0274 10.968H16.8834V5.48L13.0274 10.968ZM21.9089 9.4C21.8022 9.4 21.7115 9.368 21.6369 9.304C21.5729 9.22933 21.5409 9.13867 21.5409 9.032V7.912C21.5409 7.80533 21.5729 7.72 21.6369 7.656C21.7115 7.58133 21.8022 7.544 21.9089 7.544H23.0449C23.1622 7.544 23.2529 7.58133 23.3169 7.656C23.3915 7.72 23.4289 7.80533 23.4289 7.912V9.032C23.4289 9.13867 23.3915 9.22933 23.3169 9.304C23.2529 9.368 23.1622 9.4 23.0449 9.4H21.9089ZM21.9089 15C21.8022 15 21.7115 14.968 21.6369 14.904C21.5729 14.8293 21.5409 14.7387 21.5409 14.632V13.512C21.5409 13.4053 21.5729 13.32 21.6369 13.256C21.7115 13.1813 21.8022 13.144 21.9089 13.144H23.0449C23.1622 13.144 23.2529 13.1813 23.3169 13.256C23.3915 13.32 23.4289 13.4053 23.4289 13.512V14.632C23.4289 14.7387 23.3915 14.8293 23.3169 14.904C23.2529 14.968 23.1622 15 23.0449 15H21.9089ZM30.6266 15C30.52 15 30.4293 14.968 30.3546 14.904C30.2906 14.8293 30.2586 14.7387 30.2586 14.632V12.328H25.0746C24.968 12.328 24.8773 12.296 24.8026 12.232C24.7386 12.1573 24.7066 12.0667 24.7066 11.96V11.32C24.7066 11.2773 24.7173 11.2133 24.7386 11.128C24.7706 11.032 24.8186 10.936 24.8826 10.84L29.6826 4.072C29.8106 3.89067 30.008 3.8 30.2746 3.8H31.4266C31.5333 3.8 31.6186 3.83733 31.6826 3.912C31.7573 3.976 31.7946 4.06133 31.7946 4.168V10.936H33.2346C33.352 10.936 33.4426 10.9733 33.5066 11.048C33.5813 11.112 33.6186 11.1973 33.6186 11.304V11.96C33.6186 12.0667 33.5813 12.1573 33.5066 12.232C33.4426 12.296 33.3573 12.328 33.2506 12.328H31.7946V14.632C31.7946 14.7387 31.7573 14.8293 31.6826 14.904C31.6186 14.968 31.5333 15 31.4266 15H30.6266ZM26.4186 10.968H30.2746V5.48L26.4186 10.968ZM38.9161 15.16C38.2975 15.16 37.7268 15.0853 37.2041 14.936C36.6921 14.776 36.2495 14.552 35.8761 14.264C35.5135 13.9653 35.2308 13.608 35.0281 13.192C34.8255 12.776 34.7241 12.3067 34.7241 11.784C34.7241 11.1333 34.8788 10.5733 35.1881 10.104C35.5081 9.63467 35.9295 9.27733 36.4521 9.032C36.0361 8.78667 35.7108 8.46667 35.4761 8.072C35.2415 7.67733 35.1241 7.208 35.1241 6.664C35.1241 6.024 35.2788 5.48533 35.5881 5.048C35.9081 4.6 36.3508 4.25333 36.9161 4.008C37.4921 3.76267 38.1588 3.64 38.9161 3.64C39.6628 3.64 40.3188 3.76267 40.8841 4.008C41.4601 4.24267 41.9028 4.584 42.2121 5.032C42.5321 5.48 42.6921 6.01867 42.6921 6.648C42.6921 7.192 42.5748 7.66667 42.3401 8.072C42.1055 8.46667 41.7855 8.78667 41.3801 9.032C41.9028 9.27733 42.3188 9.63467 42.6281 10.104C42.9481 10.5733 43.1081 11.1333 43.1081 11.784C43.1081 12.4773 42.9321 13.08 42.5801 13.592C42.2281 14.0933 41.7375 14.4827 41.1081 14.76C40.4788 15.0267 39.7481 15.16 38.9161 15.16ZM38.9161 13.88C39.4068 13.88 39.8495 13.7947 40.2441 13.624C40.6388 13.4533 40.9535 13.2133 41.1881 12.904C41.4228 12.584 41.5401 12.2107 41.5401 11.784C41.5401 11.3467 41.4228 10.9787 41.1881 10.68C40.9535 10.3707 40.6388 10.136 40.2441 9.976C39.8495 9.80533 39.4068 9.72 38.9161 9.72C38.4255 9.72 37.9775 9.80533 37.5721 9.976C37.1775 10.136 36.8628 10.3707 36.6281 10.68C36.3935 10.9787 36.2761 11.3467 36.2761 11.784C36.2761 12.2107 36.3935 12.584 36.6281 12.904C36.8628 13.2133 37.1775 13.4533 37.5721 13.624C37.9775 13.7947 38.4255 13.88 38.9161 13.88ZM38.9161 8.456C39.3215 8.456 39.6948 8.38133 40.0361 8.232C40.3881 8.08267 40.6655 7.88 40.8681 7.624C41.0815 7.368 41.1881 7.05867 41.1881 6.696C41.1881 6.33333 41.0868 6.01867 40.8841 5.752C40.6921 5.48533 40.4201 5.28267 40.0681 5.144C39.7268 4.99467 39.3428 4.92 38.9161 4.92C38.4895 4.92 38.1001 4.99467 37.7481 5.144C37.4068 5.28267 37.1348 5.48533 36.9321 5.752C36.7295 6.01867 36.6281 6.33333 36.6281 6.696C36.6281 7.06933 36.7295 7.38933 36.9321 7.656C37.1348 7.912 37.4068 8.10933 37.7481 8.248C38.1001 8.38667 38.4895 8.456 38.9161 8.456Z" fill="black" fill-opacity="0.8"/>
<path d="M47.4429 8.67C47.3762 8.67 47.3196 8.64667 47.2729 8.6C47.2262 8.55333 47.2029 8.49667 47.2029 8.43V6.48H45.2829C45.2162 6.48 45.1596 6.45667 45.1129 6.41C45.0662 6.36333 45.0429 6.30667 45.0429 6.24V5.71C45.0429 5.63667 45.0662 5.58 45.1129 5.54C45.1596 5.49333 45.2162 5.47 45.2829 5.47H47.2029V3.57C47.2029 3.50333 47.2262 3.44667 47.2729 3.4C47.3196 3.35333 47.3762 3.33 47.4429 3.33H48.0229C48.0962 3.33 48.1529 3.35333 48.1929 3.4C48.2396 3.44667 48.2629 3.50333 48.2629 3.57V5.47H50.1829C50.2496 5.47 50.3062 5.49333 50.3529 5.54C50.3996 5.58 50.4229 5.63667 50.4229 5.71V6.24C50.4229 6.30667 50.3996 6.36333 50.3529 6.41C50.3062 6.45667 50.2496 6.48 50.1829 6.48H48.2629V8.43C48.2629 8.49667 48.2396 8.55333 48.1929 8.6C48.1529 8.64667 48.0962 8.67 48.0229 8.67H47.4429ZM53.1411 9C53.0678 9 53.0078 8.97667 52.9611 8.93C52.9211 8.88333 52.9011 8.82667 52.9011 8.76V3.58L51.3811 4.75C51.3211 4.79 51.2611 4.80667 51.2011 4.8C51.1411 4.78667 51.0878 4.75 51.0411 4.69L50.6211 4.15C50.5811 4.09 50.5644 4.02667 50.5711 3.96C50.5844 3.89333 50.6211 3.84 50.6811 3.8L52.9211 2.07C52.9611 2.03667 53.0011 2.01667 53.0411 2.01C53.0811 2.00333 53.1244 2 53.1711 2H54.0511C54.1178 2 54.1744 2.02333 54.2211 2.07C54.2678 2.11667 54.2911 2.17333 54.2911 2.24V8.76C54.2911 8.82667 54.2678 8.88333 54.2211 8.93C54.1744 8.97667 54.1178 9 54.0511 9H53.1411Z" fill="black" fill-opacity="0.8"/>
</svg>
